<svg width="68" height="18" viewBox="0 0 68 18" fill="none" xmlns="http://www.w3.org/2000/svg">
<g id="Layer_1">
<g id="Group">
<path id="Vector" d="M13.583 9.52618L11.511 8.90041C11.3922 8.86439 11.2643 8.92442 11.2232 9.03997C11.1334 9.29208 11.0116 9.54569 10.8578 9.8023C10.6614 10.1279 10.4072 10.4251 10.0936 10.6922C9.77995 10.9593 9.39934 11.1799 8.95022 11.351C8.50109 11.522 7.98499 11.6061 7.40037 11.6046C6.84163 11.6031 6.30573 11.501 5.79419 11.3014C5.28112 11.1019 4.82743 10.8107 4.43312 10.4311C4.03728 10.0514 3.72214 9.5832 3.48312 9.02496C3.24409 8.46672 3.12686 7.82294 3.12991 7.09212C3.13295 6.32379 3.25931 5.6515 3.50747 5.07675C3.75563 4.502 4.08296 4.02929 4.48793 3.65863C4.89138 3.28947 5.34811 3.01185 5.85509 2.82877C6.36206 2.64569 6.87665 2.55415 7.3958 2.55565C7.9926 2.55865 8.51327 2.64269 8.95478 2.81076C9.39629 2.97883 9.76929 3.19193 10.0738 3.44854C10.3783 3.70665 10.6203 4.00078 10.8015 4.33542C10.9416 4.59354 11.0497 4.84715 11.1273 5.09776C11.1654 5.21781 11.2963 5.28384 11.4196 5.24632L13.5084 4.60554C13.6287 4.56803 13.7018 4.44347 13.6652 4.32342C13.5221 3.84621 13.3135 3.37201 13.0395 2.9038C12.7228 2.36507 12.3087 1.88036 11.7972 1.44817C11.2856 1.01748 10.663 0.669332 9.93067 0.403716C9.19533 0.138101 8.35342 0.00304223 7.40646 4.09246e-05C6.48385 -0.00296038 5.59627 0.15911 4.7437 0.489253C3.89113 0.819397 3.13904 1.2906 2.48744 1.90287C1.83583 2.51513 1.31515 3.25946 0.929974 4.13584C0.543273 5.01222 0.3484 5.99364 0.343833 7.08312C0.339266 8.17259 0.523481 9.15252 0.898003 10.0244C1.271 10.8963 1.77798 11.6421 2.41893 12.2589C3.05988 12.8756 3.80892 13.3528 4.66453 13.689C5.52015 14.0251 6.42905 14.1947 7.39123 14.1992C8.3656 14.2022 9.22121 14.0627 9.95655 13.776C10.6919 13.4909 11.3237 13.1247 11.852 12.679C12.3803 12.2334 12.8035 11.7381 13.1248 11.1949C13.4018 10.7267 13.6074 10.2645 13.7444 9.8098C13.7809 9.68975 13.7079 9.5652 13.5861 9.52768L13.583 9.52618Z" fill="#1D1543"/>
<path id="Vector_2" d="M22.3698 5.35909C22.0791 5.02444 21.7091 4.75883 21.2615 4.55774C20.8139 4.35815 20.2841 4.25611 19.6736 4.25461C19.2184 4.25311 18.751 4.33114 18.2699 4.49021C17.9685 4.58925 17.7005 4.73031 17.466 4.91189C17.3092 5.03345 17.0793 4.9314 17.0809 4.73482L17.0976 0.270378C17.0976 0.142822 16.9941 0.0392773 16.8632 0.0377767L14.7409 0.0302734C14.6115 0.0302734 14.5064 0.132318 14.5049 0.261374L14.4531 13.7087C14.4531 13.8363 14.5567 13.9398 14.6876 13.9413L16.8099 13.9488C16.9393 13.9488 17.0443 13.8468 17.0458 13.7177L17.0672 8.39641C17.0946 7.87118 17.2651 7.43299 17.5787 7.08184C17.8923 6.73068 18.3217 6.55661 18.8667 6.55811C19.4909 6.56111 19.9415 6.74119 20.2186 7.10134C20.4972 7.4615 20.6343 7.9102 20.6327 8.44743L20.6129 13.7297C20.6129 13.8573 20.7165 13.9608 20.8474 13.9623L22.9712 13.9698C23.1006 13.9698 23.2057 13.8678 23.2072 13.7387L23.23 8.01374C23.2315 7.50202 23.163 7.01431 23.0214 6.55211C22.8799 6.08991 22.6637 5.69223 22.3729 5.35909H22.3698Z" fill="#1D1543"/>
<path id="Vector_3" d="M32.2307 13.323C32.2049 13.0349 32.1942 12.7633 32.1942 12.5067L32.2125 7.85764C32.214 7.38343 32.1409 6.92874 31.9932 6.49355C31.8456 6.05836 31.6065 5.67569 31.2762 5.34705C30.9458 5.01991 30.5149 4.75579 29.9836 4.5547C29.4508 4.35362 28.8083 4.25307 28.0547 4.25007C27.4046 4.24707 26.8322 4.33861 26.3389 4.52169C25.8441 4.70627 25.4269 4.94487 25.089 5.2375C24.7494 5.53163 24.483 5.86327 24.2866 6.23393C24.1298 6.52956 24.0232 6.82369 23.9654 7.11932C23.941 7.24387 24.0202 7.36693 24.1466 7.39244L25.9887 7.78411C26.1136 7.81112 26.2369 7.73308 26.2658 7.60853C26.3389 7.29189 26.5003 7.00977 26.7499 6.76066C27.056 6.45453 27.4959 6.30296 28.0669 6.30446C28.6119 6.30596 29.0184 6.43052 29.2833 6.67362C29.5482 6.91823 29.6806 7.20636 29.6791 7.5395C29.6791 7.70607 29.6258 7.85014 29.5208 7.97169C29.4157 8.09324 29.227 8.17278 28.9544 8.21029L26.5947 8.54794C26.1912 8.61097 25.8167 8.71151 25.4726 8.85107C25.127 8.99063 24.824 9.18121 24.5637 9.42432C24.3034 9.66742 24.0963 9.95105 23.9471 10.2767C23.7964 10.6023 23.7203 10.9775 23.7188 11.3992C23.7188 11.7713 23.7903 12.127 23.938 12.4661C24.0857 12.8068 24.3018 13.1084 24.5881 13.371C24.8728 13.6351 25.2199 13.8467 25.6279 14.0088C26.0359 14.1709 26.4942 14.2519 27.0011 14.2534C27.7152 14.2564 28.3044 14.1169 28.7672 13.8377C29.0306 13.6772 29.2605 13.5031 29.4553 13.314C29.6 13.1729 29.8435 13.2555 29.8603 13.4566C29.8603 13.4611 29.8603 13.4641 29.8603 13.4686C29.871 13.5916 29.8816 13.7012 29.8938 13.7957C29.909 13.9113 30.008 13.9968 30.1252 13.9983L32.0359 14.0058C32.1759 14.0058 32.2856 13.8873 32.2703 13.7492C32.2566 13.6261 32.2429 13.4851 32.2292 13.3245L32.2307 13.323ZM29.67 10.1716C29.6685 10.5948 29.6091 10.943 29.4903 11.2176C29.3731 11.4922 29.2148 11.7158 29.0199 11.8884C28.825 12.061 28.5997 12.181 28.3455 12.2515C28.0912 12.3206 27.8278 12.3551 27.5553 12.3536C27.1397 12.3521 26.8276 12.2395 26.6205 12.0144C26.4135 11.7893 26.31 11.5357 26.3115 11.2551C26.3115 10.8845 26.4272 10.6053 26.6555 10.4208C26.8839 10.2362 27.1671 10.1191 27.5051 10.0681L29.399 9.78898C29.5406 9.76797 29.6685 9.87752 29.6685 10.0186V10.1716H29.67Z" fill="#1D1543"/>
<path id="Vector_4" d="M46.191 11.9839H43.0731C42.4884 11.9839 42.1368 11.8789 42.1368 11.4572C42.1368 10.8479 43.3258 10.9965 43.9104 10.9965C46.7559 10.9965 48.4031 9.74797 48.4321 7.61554C48.458 5.78925 46.5397 4.23307 43.9104 4.21506C41.0848 4.19555 39.4085 5.48311 39.4085 7.61554C39.4085 8.84457 39.9734 9.78698 40.9873 10.3632V10.3827C40.2657 10.7099 39.7983 11.1211 39.7983 12.0245C39.7983 12.6967 40.1104 13.216 40.695 13.5806V13.6001C39.6232 13.7157 38.9609 14.331 38.9609 15.3289C38.9609 16.9046 40.969 17.826 44.3595 17.826C47.75 17.826 49.6607 16.6735 49.6607 14.502C49.6607 12.9263 48.3742 11.9854 46.191 11.9854V11.9839ZM43.9104 6.05786C45.002 6.05786 45.6445 6.63411 45.6445 7.61404C45.6445 8.59396 45.002 9.15071 43.9104 9.15071C42.8188 9.15071 42.1946 8.57446 42.1946 7.61404C42.1946 6.65362 42.8371 6.05786 43.9104 6.05786ZM44.3199 16.0567C42.799 16.0567 41.9023 15.6725 41.9023 14.9612C41.9023 14.424 42.3697 14.0969 43.169 14.0969H45.4496C46.3067 14.0969 46.6965 14.385 46.6965 14.9042C46.6965 15.653 45.8196 16.0567 44.3184 16.0567H44.3199Z" fill="#1D1543"/>
<path id="Vector_5" d="M39.7934 4.74206C39.8162 4.72405 39.8101 4.68953 39.7827 4.68053C39.5757 4.6115 38.9256 4.52146 38.7718 4.51246C38.6744 4.50646 38.5739 4.50195 38.4704 4.50195C38.2618 4.50195 38.0319 4.51996 37.7777 4.55748C37.5234 4.59499 37.2707 4.66402 37.0165 4.76607C36.7622 4.86811 36.5217 5.01668 36.2933 5.21476C36.0999 5.38284 35.937 5.58993 35.8031 5.83453C35.7848 5.86755 35.7346 5.85704 35.7346 5.81953L35.7391 4.6055C35.7391 4.58599 35.7224 4.56948 35.7026 4.56948L33.2606 4.56048C33.2408 4.56048 33.224 4.57699 33.224 4.59649L33.1875 13.9771C33.1875 13.9966 33.2043 14.0131 33.224 14.0131L35.7437 14.0221C35.7635 14.0221 35.7802 14.0056 35.7802 13.9861L35.797 9.69871C35.7985 9.18699 35.8685 8.7608 36.0071 8.42166C36.1441 8.08251 36.3237 7.81089 36.546 7.6068C36.7683 7.40271 37.0286 7.25715 37.327 7.16861C37.6254 7.08007 37.9451 7.03655 38.2831 7.03805C38.4475 7.03805 38.4947 7.03805 38.5709 7.05006C38.5922 7.05306 38.6105 7.03805 38.612 7.01705C38.6683 6.05963 39.0763 5.28529 39.7904 4.74206H39.7934Z" fill="#1D1543"/>
<path id="Vector_6" d="M48.0585 5.04349C48.7984 5.04349 49.3983 4.45225 49.3983 3.72292C49.3983 2.99358 48.7984 2.40234 48.0585 2.40234C47.3186 2.40234 46.7188 2.99358 46.7188 3.72292C46.7188 4.45225 47.3186 5.04349 48.0585 5.04349Z" fill="#1D1543"/>
<path id="Vector_7" d="M53.4551 4.68853C52.8446 4.68553 52.2524 4.80258 51.68 5.03668C51.1075 5.27229 50.6021 5.60243 50.1651 6.03012C49.7282 6.4578 49.378 6.97853 49.1162 7.59229C48.8543 8.20606 48.7218 8.89036 48.7188 9.64669C48.7158 10.4405 48.8467 11.1518 49.1101 11.7806C49.3735 12.4094 49.7327 12.9421 50.1864 13.3788C50.6386 13.8155 51.1638 14.1486 51.7606 14.3737C52.3574 14.6003 52.9877 14.7144 53.65 14.7174C54.2346 14.7189 54.7705 14.6409 55.2592 14.4833C55.7464 14.3257 56.1727 14.1126 56.5381 13.844C56.9019 13.5769 57.2125 13.2603 57.4683 12.8971C57.6738 12.603 57.8352 12.2953 57.9524 11.9727C57.9981 11.8466 57.9296 11.7086 57.8002 11.6696L56.0707 11.1563C55.9596 11.1233 55.8408 11.1744 55.7921 11.2779C55.6337 11.6185 55.4084 11.9022 55.1131 12.1318C54.7675 12.3989 54.2894 12.5324 53.6789 12.5294C53.3546 12.5294 53.0486 12.4724 52.7639 12.3629C52.4777 12.2533 52.2296 12.1018 52.0149 11.9082C51.8018 11.7146 51.6267 11.488 51.4912 11.2239C51.4211 11.0888 51.3648 10.8682 51.3268 10.6836C51.2948 10.5336 51.4181 10.3955 51.5734 10.4075C53.1171 10.5231 58.1564 10.0834 58.1503 9.70371C58.1473 9.54314 58.1717 9.37357 58.1717 9.19499C58.1778 7.67033 57.7667 6.88399 56.9385 6.00911C56.1103 5.13573 54.9486 4.69454 53.4551 4.69003V4.68853ZM55.4054 8.27359C54.5178 8.46117 52.8005 8.64875 51.6054 8.49719C51.4577 8.47768 51.3679 8.33062 51.4151 8.19256C51.4394 8.11902 51.4699 8.04099 51.5034 7.96746C51.6023 7.74986 51.7424 7.55178 51.9251 7.3732C52.1078 7.19462 52.3285 7.04756 52.5889 6.93351C52.8492 6.81946 53.1476 6.76243 53.4856 6.76393C53.8494 6.76393 54.1692 6.80895 54.4295 6.93051C55.2105 7.29366 55.4815 7.71085 55.5744 7.97046C55.6216 8.10252 55.5424 8.24358 55.4039 8.27359H55.4054Z" fill="#1D1543"/>
<path id="Vector_8" d="M66.7666 6.00858C65.9384 5.1352 64.7768 4.69401 63.2833 4.68951C62.6728 4.68651 62.0805 4.80356 61.5081 5.03766C60.9356 5.27326 60.4302 5.60341 59.9933 6.03109C59.5563 6.45878 59.2061 6.9795 58.9443 7.59327C58.6824 8.20704 58.55 8.89133 58.5469 9.64766C58.5439 10.4415 58.6748 11.1528 58.9382 11.7816C59.2016 12.4104 59.5609 12.9431 60.0146 13.3798C60.4667 13.8165 60.992 14.1496 61.5888 14.3747C62.1856 14.6013 62.8159 14.7154 63.4781 14.7184C64.0627 14.7199 64.5986 14.6418 65.0874 14.4843C65.5745 14.3267 66.0008 14.1136 66.3662 13.845C66.7316 13.5779 67.0407 13.2612 67.2964 12.8981C67.502 12.6039 67.6633 12.2963 67.7806 11.9737C67.8262 11.8476 67.7577 11.7096 67.6283 11.6705L65.8988 11.1573C65.7877 11.1243 65.6689 11.1753 65.6202 11.2789C65.4619 11.6195 65.2365 11.9031 64.9412 12.1327C64.5956 12.3999 64.1176 12.5334 63.5071 12.5304C63.1828 12.5304 62.8768 12.4734 62.5921 12.3638C62.3058 12.2543 62.0577 12.1027 61.843 11.9091C61.6299 11.7156 61.4548 11.489 61.3193 11.2248C61.2493 11.0898 61.1929 10.8692 61.1549 10.6846C61.1229 10.5345 61.2462 10.3965 61.4015 10.4085C62.9453 10.524 67.9846 10.0844 67.9785 9.70469C67.9754 9.54412 67.9998 9.37454 67.9998 9.19597C68.0059 7.6713 67.5948 6.88496 66.7666 6.01008V6.00858ZM65.232 8.27457C64.3444 8.46215 62.6271 8.64973 61.432 8.49816C61.2843 8.47866 61.1945 8.33159 61.2417 8.19353C61.266 8.12 61.2965 8.04197 61.33 7.96843C61.4289 7.75084 61.569 7.55275 61.7517 7.37418C61.9344 7.1956 62.1551 7.04853 62.4155 6.93448C62.6758 6.82043 62.9742 6.76341 63.3122 6.76491C63.676 6.76491 63.9958 6.80993 64.2561 6.93148C65.0371 7.29464 65.3081 7.71182 65.401 7.97143C65.4482 8.10349 65.369 8.24455 65.2305 8.27457H65.232Z" fill="#1D1543"/>
</g>
</g>
</svg>
