<svg width="49" height="20" viewBox="0 0 49 20" fill="none" xmlns="http://www.w3.org/2000/svg">
<g id="Layer_1" clip-path="url(#clip0_1_3680)">
<path id="Vector" d="M19.6001 10C19.6001 4.47719 23.9877 0 29.4001 0C34.8124 0 39.2001 4.47719 39.2001 10" fill="#FFD602"/>
<path id="Vector_2" d="M34.2999 1.33838C31.3706 3.06733 29.3999 6.29891 29.3999 10.0002H39.1999C39.1999 6.29891 37.2292 3.06733 34.2999 1.33838Z" fill="#FF8500"/>
<path id="Vector_3" d="M9.7998 10C9.7998 15.5228 14.1875 20 19.5998 20C25.0122 20 29.3998 15.5228 29.3998 10" fill="#6245DE"/>
<path id="Vector_4" d="M9.7998 10C9.7998 15.5228 14.1875 20 19.5998 20C25.0122 20 29.3998 15.5228 29.3998 10" fill="#6245DE"/>
<path id="Vector_5" d="M14.6998 18.6618C17.6291 16.9329 19.5998 13.7013 19.5998 10H9.7998C9.7998 13.7013 11.7706 16.9329 14.6998 18.6618Z" fill="#FF8500"/>
</g>
<defs>
<clipPath id="clip0_1_3680">
<rect width="49" height="20" fill="white"/>
</clipPath>
</defs>
</svg>
